<mxfile host="app.diagrams.net" agent="Mozilla/5.0 (Windows NT 10.0; Win64; x64) AppleWebKit/537.36 (KHTML, like Gecko) Chrome/133.0.0.0 Safari/537.36" version="26.0.15">
  <diagram id="C5RBs43oDa-KdzZeNtuy" name="Page-1">
    <mxGraphModel dx="2074" dy="1098" grid="1" gridSize="10" guides="1" tooltips="1" connect="1" arrows="1" fold="1" page="1" pageScale="1" pageWidth="827" pageHeight="1169" math="0" shadow="0">
      <root>
        <mxCell id="WIyWlLk6GJQsqaUBKTNV-0" />
        <mxCell id="WIyWlLk6GJQsqaUBKTNV-1" parent="WIyWlLk6GJQsqaUBKTNV-0" />
        <mxCell id="WHkR1_GwU9PaLAYDokFh-24" value="" style="group" parent="WIyWlLk6GJQsqaUBKTNV-1" vertex="1" connectable="0">
          <mxGeometry x="70" y="60" width="1180" height="440" as="geometry" />
        </mxCell>
        <mxCell id="WHkR1_GwU9PaLAYDokFh-20" value="PostgresSQL Data-Storage" style="whiteSpace=wrap;html=1;labelPosition=center;verticalLabelPosition=top;align=center;verticalAlign=bottom;" parent="WHkR1_GwU9PaLAYDokFh-24" vertex="1">
          <mxGeometry width="1180" height="440" as="geometry" />
        </mxCell>
        <mxCell id="zkfFHV4jXpPFQw0GAbJ--0" value="User" style="swimlane;fontStyle=2;align=center;verticalAlign=top;childLayout=stackLayout;horizontal=1;startSize=26;horizontalStack=0;resizeParent=1;resizeLast=0;collapsible=1;marginBottom=0;rounded=0;shadow=0;strokeWidth=1;" parent="WHkR1_GwU9PaLAYDokFh-24" vertex="1">
          <mxGeometry x="90" y="14" width="250" height="242" as="geometry">
            <mxRectangle x="230" y="140" width="160" height="26" as="alternateBounds" />
          </mxGeometry>
        </mxCell>
        <mxCell id="zkfFHV4jXpPFQw0GAbJ--1" value="  +id: UUID&#xa;  +firstName: string&#xa;  +lastName: string&#xa;  +email: string&#xa;  +phoneNumber: string&#xa;  +preferences: Preferences&#xa;  +createdAt: Timestamp&#xa;  +updatedAt: Timestamp" style="text;align=left;verticalAlign=top;spacingLeft=4;spacingRight=4;overflow=hidden;rotatable=0;points=[[0,0.5],[1,0.5]];portConstraint=eastwest;" parent="zkfFHV4jXpPFQw0GAbJ--0" vertex="1">
          <mxGeometry y="26" width="250" height="134" as="geometry" />
        </mxCell>
        <mxCell id="zkfFHV4jXpPFQw0GAbJ--4" value="" style="line;html=1;strokeWidth=1;align=left;verticalAlign=middle;spacingTop=-1;spacingLeft=3;spacingRight=3;rotatable=0;labelPosition=right;points=[];portConstraint=eastwest;" parent="zkfFHV4jXpPFQw0GAbJ--0" vertex="1">
          <mxGeometry y="160" width="250" height="56" as="geometry" />
        </mxCell>
        <mxCell id="WHkR1_GwU9PaLAYDokFh-4" value="&lt;div&gt;Preferences&lt;/div&gt;" style="swimlane;fontStyle=1;align=center;verticalAlign=top;childLayout=stackLayout;horizontal=1;startSize=26;horizontalStack=0;resizeParent=1;resizeParentMax=0;resizeLast=0;collapsible=1;marginBottom=0;whiteSpace=wrap;html=1;" parent="WHkR1_GwU9PaLAYDokFh-24" vertex="1">
          <mxGeometry x="430" y="20" width="220" height="154" as="geometry" />
        </mxCell>
        <mxCell id="WHkR1_GwU9PaLAYDokFh-5" value="&lt;div&gt;&amp;nbsp;+userID: foregin_UUID&lt;/div&gt;&lt;div&gt;&amp;nbsp;+radius: int&lt;/div&gt;&lt;div&gt;&amp;nbsp;+defaultLocation: String&lt;/div&gt;&lt;div&gt;&amp;nbsp; +dietaryRestrictions: string[]&lt;/div&gt;&lt;div&gt;&amp;nbsp; +cuisinePreferences: string[]&lt;/div&gt;" style="text;strokeColor=none;fillColor=none;align=left;verticalAlign=top;spacingLeft=4;spacingRight=4;overflow=hidden;rotatable=0;points=[[0,0.5],[1,0.5]];portConstraint=eastwest;whiteSpace=wrap;html=1;" parent="WHkR1_GwU9PaLAYDokFh-4" vertex="1">
          <mxGeometry y="26" width="220" height="94" as="geometry" />
        </mxCell>
        <mxCell id="WHkR1_GwU9PaLAYDokFh-6" value="" style="line;strokeWidth=1;fillColor=none;align=left;verticalAlign=middle;spacingTop=-1;spacingLeft=3;spacingRight=3;rotatable=0;labelPosition=right;points=[];portConstraint=eastwest;strokeColor=inherit;" parent="WHkR1_GwU9PaLAYDokFh-4" vertex="1">
          <mxGeometry y="120" width="220" height="8" as="geometry" />
        </mxCell>
        <mxCell id="WHkR1_GwU9PaLAYDokFh-7" value="+ method(type): type" style="text;strokeColor=none;fillColor=none;align=left;verticalAlign=top;spacingLeft=4;spacingRight=4;overflow=hidden;rotatable=0;points=[[0,0.5],[1,0.5]];portConstraint=eastwest;whiteSpace=wrap;html=1;" parent="WHkR1_GwU9PaLAYDokFh-4" vertex="1">
          <mxGeometry y="128" width="220" height="26" as="geometry" />
        </mxCell>
        <mxCell id="WHkR1_GwU9PaLAYDokFh-22" style="edgeStyle=orthogonalEdgeStyle;rounded=0;orthogonalLoop=1;jettySize=auto;html=1;entryX=0;entryY=0.091;entryDx=0;entryDy=0;entryPerimeter=0;" parent="WHkR1_GwU9PaLAYDokFh-24" source="zkfFHV4jXpPFQw0GAbJ--1" target="WHkR1_GwU9PaLAYDokFh-4" edge="1">
          <mxGeometry relative="1" as="geometry" />
        </mxCell>
        <mxCell id="WHkR1_GwU9PaLAYDokFh-8" value="HistoricalSession" style="swimlane;fontStyle=1;align=center;verticalAlign=top;childLayout=stackLayout;horizontal=1;startSize=26;horizontalStack=0;resizeParent=1;resizeParentMax=0;resizeLast=0;collapsible=1;marginBottom=0;whiteSpace=wrap;html=1;" parent="WHkR1_GwU9PaLAYDokFh-24" vertex="1">
          <mxGeometry x="440" y="220" width="240" height="174" as="geometry" />
        </mxCell>
        <mxCell id="WHkR1_GwU9PaLAYDokFh-9" value="+ id: UUID (PK)&lt;div&gt;+ creatorId: UUID (FK -&amp;gt; User.id&lt;/div&gt;&lt;div&gt;+ participants: JSONB&lt;/div&gt;&lt;div&gt;+ selectedRestaurant: String&lt;/div&gt;&lt;div&gt;+ sessionSettings: JSONB&lt;/div&gt;&lt;div&gt;+ createdAt: Timestamp&lt;/div&gt;&lt;div&gt;+ completedAt: Timestamp&lt;/div&gt;" style="text;strokeColor=none;fillColor=none;align=left;verticalAlign=top;spacingLeft=4;spacingRight=4;overflow=hidden;rotatable=0;points=[[0,0.5],[1,0.5]];portConstraint=eastwest;whiteSpace=wrap;html=1;" parent="WHkR1_GwU9PaLAYDokFh-8" vertex="1">
          <mxGeometry y="26" width="240" height="114" as="geometry" />
        </mxCell>
        <mxCell id="WHkR1_GwU9PaLAYDokFh-10" value="" style="line;strokeWidth=1;fillColor=none;align=left;verticalAlign=middle;spacingTop=-1;spacingLeft=3;spacingRight=3;rotatable=0;labelPosition=right;points=[];portConstraint=eastwest;strokeColor=inherit;" parent="WHkR1_GwU9PaLAYDokFh-8" vertex="1">
          <mxGeometry y="140" width="240" height="8" as="geometry" />
        </mxCell>
        <mxCell id="WHkR1_GwU9PaLAYDokFh-11" value="+ method(type): type" style="text;strokeColor=none;fillColor=none;align=left;verticalAlign=top;spacingLeft=4;spacingRight=4;overflow=hidden;rotatable=0;points=[[0,0.5],[1,0.5]];portConstraint=eastwest;whiteSpace=wrap;html=1;" parent="WHkR1_GwU9PaLAYDokFh-8" vertex="1">
          <mxGeometry y="148" width="240" height="26" as="geometry" />
        </mxCell>
        <mxCell id="WHkR1_GwU9PaLAYDokFh-23" value="" style="endArrow=ERmany;startArrow=ERmany;html=1;rounded=0;entryX=-0.008;entryY=0.842;entryDx=0;entryDy=0;entryPerimeter=0;edgeStyle=entityRelationEdgeStyle;endFill=0;startFill=0;" parent="WHkR1_GwU9PaLAYDokFh-24" target="WHkR1_GwU9PaLAYDokFh-9" edge="1">
          <mxGeometry width="50" height="50" relative="1" as="geometry">
            <mxPoint x="340" y="190" as="sourcePoint" />
            <mxPoint x="390" y="320" as="targetPoint" />
          </mxGeometry>
        </mxCell>
        <mxCell id="NqfzA0jp39pH0iLvzLVL-4" value="" style="group" vertex="1" connectable="0" parent="WIyWlLk6GJQsqaUBKTNV-1">
          <mxGeometry x="24" y="690" width="780" height="340" as="geometry" />
        </mxCell>
        <mxCell id="WHkR1_GwU9PaLAYDokFh-25" value="MongoDB Storage" style="whiteSpace=wrap;html=1;labelPosition=center;verticalLabelPosition=top;align=center;verticalAlign=bottom;" parent="NqfzA0jp39pH0iLvzLVL-4" vertex="1">
          <mxGeometry width="780" height="340" as="geometry" />
        </mxCell>
        <mxCell id="WHkR1_GwU9PaLAYDokFh-12" value="ActiveSession" style="swimlane;fontStyle=1;align=center;verticalAlign=top;childLayout=stackLayout;horizontal=1;startSize=26;horizontalStack=0;resizeParent=1;resizeParentMax=0;resizeLast=0;collapsible=1;marginBottom=0;whiteSpace=wrap;html=1;" parent="NqfzA0jp39pH0iLvzLVL-4" vertex="1">
          <mxGeometry x="40" y="60" width="160" height="194" as="geometry" />
        </mxCell>
        <mxCell id="WHkR1_GwU9PaLAYDokFh-13" value="+ id: ObjectID&lt;div&gt;+ creatorId: UUID&lt;/div&gt;&lt;div&gt;+ participants: [UUID]&lt;/div&gt;&lt;div&gt;+ restaurants: [String]&lt;/div&gt;&lt;div&gt;+ votes: [Vote]&lt;/div&gt;&lt;div&gt;+ settings: Object&lt;/div&gt;&lt;div&gt;+ expiresAt: Timestamp&lt;/div&gt;" style="text;strokeColor=none;fillColor=none;align=left;verticalAlign=top;spacingLeft=4;spacingRight=4;overflow=hidden;rotatable=0;points=[[0,0.5],[1,0.5]];portConstraint=eastwest;whiteSpace=wrap;html=1;" parent="WHkR1_GwU9PaLAYDokFh-12" vertex="1">
          <mxGeometry y="26" width="160" height="134" as="geometry" />
        </mxCell>
        <mxCell id="WHkR1_GwU9PaLAYDokFh-14" value="" style="line;strokeWidth=1;fillColor=none;align=left;verticalAlign=middle;spacingTop=-1;spacingLeft=3;spacingRight=3;rotatable=0;labelPosition=right;points=[];portConstraint=eastwest;strokeColor=inherit;" parent="WHkR1_GwU9PaLAYDokFh-12" vertex="1">
          <mxGeometry y="160" width="160" height="8" as="geometry" />
        </mxCell>
        <mxCell id="WHkR1_GwU9PaLAYDokFh-15" value="+ method(type): type" style="text;strokeColor=none;fillColor=none;align=left;verticalAlign=top;spacingLeft=4;spacingRight=4;overflow=hidden;rotatable=0;points=[[0,0.5],[1,0.5]];portConstraint=eastwest;whiteSpace=wrap;html=1;" parent="WHkR1_GwU9PaLAYDokFh-12" vertex="1">
          <mxGeometry y="168" width="160" height="26" as="geometry" />
        </mxCell>
        <mxCell id="WHkR1_GwU9PaLAYDokFh-26" value="GroupSettings" style="swimlane;fontStyle=1;align=center;verticalAlign=top;childLayout=stackLayout;horizontal=1;startSize=26;horizontalStack=0;resizeParent=1;resizeParentMax=0;resizeLast=0;collapsible=1;marginBottom=0;whiteSpace=wrap;html=1;" parent="NqfzA0jp39pH0iLvzLVL-4" vertex="1">
          <mxGeometry x="330" y="60" width="230" height="194" as="geometry" />
        </mxCell>
        <mxCell id="WHkR1_GwU9PaLAYDokFh-27" value="&lt;div&gt;&amp;nbsp;+maxGroupSize: int&lt;/div&gt;&lt;div&gt;&amp;nbsp; +sessionVisibility: string&lt;/div&gt;&lt;div&gt;&amp;nbsp; +sharingMethod: string&lt;/div&gt;&lt;div&gt;&amp;nbsp; +notificationPreferences: string&lt;/div&gt;&lt;div&gt;&amp;nbsp; +timeLimit: int&lt;/div&gt;" style="text;strokeColor=none;fillColor=none;align=left;verticalAlign=top;spacingLeft=4;spacingRight=4;overflow=hidden;rotatable=0;points=[[0,0.5],[1,0.5]];portConstraint=eastwest;whiteSpace=wrap;html=1;" parent="WHkR1_GwU9PaLAYDokFh-26" vertex="1">
          <mxGeometry y="26" width="230" height="134" as="geometry" />
        </mxCell>
        <mxCell id="WHkR1_GwU9PaLAYDokFh-28" value="" style="line;strokeWidth=1;fillColor=none;align=left;verticalAlign=middle;spacingTop=-1;spacingLeft=3;spacingRight=3;rotatable=0;labelPosition=right;points=[];portConstraint=eastwest;strokeColor=inherit;" parent="WHkR1_GwU9PaLAYDokFh-26" vertex="1">
          <mxGeometry y="160" width="230" height="8" as="geometry" />
        </mxCell>
        <mxCell id="WHkR1_GwU9PaLAYDokFh-29" value="+ method(type): type" style="text;strokeColor=none;fillColor=none;align=left;verticalAlign=top;spacingLeft=4;spacingRight=4;overflow=hidden;rotatable=0;points=[[0,0.5],[1,0.5]];portConstraint=eastwest;whiteSpace=wrap;html=1;" parent="WHkR1_GwU9PaLAYDokFh-26" vertex="1">
          <mxGeometry y="168" width="230" height="26" as="geometry" />
        </mxCell>
        <mxCell id="NqfzA0jp39pH0iLvzLVL-1" style="edgeStyle=orthogonalEdgeStyle;rounded=0;orthogonalLoop=1;jettySize=auto;html=1;entryX=-0.009;entryY=0.077;entryDx=0;entryDy=0;entryPerimeter=0;" edge="1" parent="NqfzA0jp39pH0iLvzLVL-4" source="WHkR1_GwU9PaLAYDokFh-13" target="WHkR1_GwU9PaLAYDokFh-26">
          <mxGeometry relative="1" as="geometry" />
        </mxCell>
        <mxCell id="NqfzA0jp39pH0iLvzLVL-5" value="" style="group" vertex="1" connectable="0" parent="WIyWlLk6GJQsqaUBKTNV-1">
          <mxGeometry x="930" y="640" width="460" height="440" as="geometry" />
        </mxCell>
        <mxCell id="NqfzA0jp39pH0iLvzLVL-0" value="Redis Storage&lt;div&gt;&lt;br&gt;&lt;/div&gt;" style="whiteSpace=wrap;html=1;labelPosition=center;verticalLabelPosition=top;align=center;verticalAlign=bottom;" vertex="1" parent="NqfzA0jp39pH0iLvzLVL-5">
          <mxGeometry width="460" height="440" as="geometry" />
        </mxCell>
        <mxCell id="WHkR1_GwU9PaLAYDokFh-0" value="&lt;div&gt;Restaurant Data&lt;/div&gt;&lt;div&gt;&lt;br&gt;&lt;/div&gt;" style="swimlane;fontStyle=1;align=center;verticalAlign=top;childLayout=stackLayout;horizontal=1;startSize=26;horizontalStack=0;resizeParent=1;resizeParentMax=0;resizeLast=0;collapsible=1;marginBottom=0;whiteSpace=wrap;html=1;" parent="NqfzA0jp39pH0iLvzLVL-5" vertex="1">
          <mxGeometry x="30" y="13" width="290" height="244" as="geometry" />
        </mxCell>
        <mxCell id="WHkR1_GwU9PaLAYDokFh-1" value="&lt;div&gt;+ id :(string)&amp;nbsp; &amp;nbsp; &amp;nbsp; &amp;nbsp; &amp;nbsp; &amp;nbsp; &amp;nbsp; &amp;nbsp; &amp;nbsp; &amp;nbsp; &amp;nbsp; &amp;nbsp; &amp;nbsp; &amp;nbsp; &amp;nbsp; &amp;nbsp; &amp;nbsp; &amp;nbsp; &amp;nbsp;&amp;nbsp;&lt;/div&gt;&lt;div&gt;&lt;span style=&quot;background-color: transparent; color: light-dark(rgb(0, 0, 0), rgb(255, 255, 255));&quot;&gt;+ name (string)&amp;nbsp; &amp;nbsp; &amp;nbsp; &amp;nbsp; &amp;nbsp; &amp;nbsp; &amp;nbsp; &amp;nbsp; &amp;nbsp; &amp;nbsp; &amp;nbsp; &amp;nbsp; &amp;nbsp; &amp;nbsp; &amp;nbsp; &amp;nbsp; &amp;nbsp; &amp;nbsp;&amp;nbsp;&lt;/span&gt;&lt;/div&gt;&lt;div&gt;+ address (string)&amp;nbsp; &amp;nbsp; &amp;nbsp; &amp;nbsp; &amp;nbsp; &amp;nbsp; &amp;nbsp; &amp;nbsp; &amp;nbsp; &amp;nbsp; &amp;nbsp; &amp;nbsp; &amp;nbsp; &amp;nbsp; &amp;nbsp; &amp;nbsp; &amp;nbsp;&lt;/div&gt;&lt;div&gt;+ lat, lng (float, float)&amp;nbsp; &amp;nbsp; &amp;nbsp; &amp;nbsp; &amp;nbsp; &amp;nbsp; &amp;nbsp; &amp;nbsp; &amp;nbsp; &amp;nbsp; &amp;nbsp; &amp;nbsp; &amp;nbsp;&lt;/div&gt;&lt;div&gt;+ google_rating (float)&amp;nbsp; &amp;nbsp; &amp;nbsp; &amp;nbsp; &amp;nbsp; &amp;nbsp; &amp;nbsp; &amp;nbsp; &amp;nbsp; &amp;nbsp; &amp;nbsp; &amp;nbsp; &amp;nbsp; &amp;nbsp;&lt;/div&gt;&lt;div&gt;+ google_review_count (int)&amp;nbsp; &amp;nbsp; &amp;nbsp; &amp;nbsp; &amp;nbsp; &amp;nbsp; &amp;nbsp; &amp;nbsp; &amp;nbsp; &amp;nbsp; &amp;nbsp; &amp;nbsp;&lt;/div&gt;&lt;div&gt;+ yelp_rating (float)&amp;nbsp; &amp;nbsp; &amp;nbsp; &amp;nbsp; &amp;nbsp; &amp;nbsp; &amp;nbsp; &amp;nbsp; &amp;nbsp; &amp;nbsp; &amp;nbsp; &amp;nbsp; &amp;nbsp; &amp;nbsp; &amp;nbsp; &amp;nbsp;&lt;/div&gt;&lt;div&gt;+ yelp_review_count (int)&amp;nbsp; &amp;nbsp; &amp;nbsp; &amp;nbsp; &amp;nbsp; &amp;nbsp; &amp;nbsp; &amp;nbsp; &amp;nbsp; &amp;nbsp; &amp;nbsp; &amp;nbsp; &amp;nbsp; &amp;nbsp;&lt;/div&gt;&lt;div&gt;+ reviews (list of { text: string, rating: int })&lt;/div&gt;&lt;div&gt;+ photos (list of strings)&amp;nbsp; &amp;nbsp; &amp;nbsp;&lt;/div&gt;" style="text;strokeColor=none;fillColor=none;align=left;verticalAlign=top;spacingLeft=4;spacingRight=4;overflow=hidden;rotatable=0;points=[[0,0.5],[1,0.5]];portConstraint=eastwest;whiteSpace=wrap;html=1;" parent="WHkR1_GwU9PaLAYDokFh-0" vertex="1">
          <mxGeometry y="26" width="290" height="184" as="geometry" />
        </mxCell>
        <mxCell id="WHkR1_GwU9PaLAYDokFh-2" value="" style="line;strokeWidth=1;fillColor=none;align=left;verticalAlign=middle;spacingTop=-1;spacingLeft=3;spacingRight=3;rotatable=0;labelPosition=right;points=[];portConstraint=eastwest;strokeColor=inherit;" parent="WHkR1_GwU9PaLAYDokFh-0" vertex="1">
          <mxGeometry y="210" width="290" height="8" as="geometry" />
        </mxCell>
        <mxCell id="WHkR1_GwU9PaLAYDokFh-3" value="+ method(type): type" style="text;strokeColor=none;fillColor=none;align=left;verticalAlign=top;spacingLeft=4;spacingRight=4;overflow=hidden;rotatable=0;points=[[0,0.5],[1,0.5]];portConstraint=eastwest;whiteSpace=wrap;html=1;" parent="WHkR1_GwU9PaLAYDokFh-0" vertex="1">
          <mxGeometry y="218" width="290" height="26" as="geometry" />
        </mxCell>
        <mxCell id="NqfzA0jp39pH0iLvzLVL-2" value="&lt;h1 style=&quot;margin-top: 0px;&quot;&gt;Redis Key&lt;/h1&gt;&lt;div&gt;&amp;nbsp;Redis Key: restaurants:{latitude}:{longitude}:{radius}:{filters_hash}&lt;/div&gt;" style="text;html=1;whiteSpace=wrap;overflow=hidden;rounded=0;" vertex="1" parent="NqfzA0jp39pH0iLvzLVL-5">
          <mxGeometry x="30" y="280" width="360" height="120" as="geometry" />
        </mxCell>
      </root>
    </mxGraphModel>
  </diagram>
</mxfile>
